Coordinates
version=1
nRows=22
nColumns=18
inDegrees=yes

Units are S.I. units (second, meters, Newtons, ...)
Angles are in degrees.

endheader
time	ground_thorax_rot_x	ground_thorax_rot_y	ground_thorax_rot_z	ground_thorax_tx	ground_thorax_ty	ground_thorax_tz	clav_prot	clav_elev	scapula_abduction	scapula_elevation	scapula_upward_rot	scapula_winging	plane_elv	shoulder_elv	axial_rot	elbow_flexion	pro_sup
      3.73000000	      1.70036023	     -5.93746084	     -9.54850385	     -0.00423131	      0.00403036	     -0.00078352	    -20.53689669	     -4.39591436	     -9.34142054	     -3.79552314	     12.28523652	      5.45792344	    -25.40015116	     16.46357368	     46.13174627	      0.00000000	     34.32000000
      3.74000000	      1.63180385	     -5.88886220	     -9.62574840	     -0.00423131	      0.00403036	     -0.00078352	    -20.58259738	     -4.57842737	     -9.52065114	     -3.87093726	     12.03238771	      5.58339729	    -24.36504300	     16.93626910	     41.85581984	      0.00000000	     34.32000000
      3.75000000	      1.47973434	     -5.98063841	     -9.56507646	     -0.00423131	      0.00403036	     -0.00078352	    -20.47176577	     -4.74033074	     -9.36084369	     -3.95509111	     11.90470608	      5.65493120	    -24.97998108	     16.99918690	     41.89477767	      0.00000000	     34.32000000
      3.76000000	      1.45391270	     -6.00587275	     -9.66844634	     -0.00423131	      0.00403036	     -0.00078352	    -20.49738182	     -4.79199497	     -9.43456610	     -3.97676324	     11.83161585	      5.69243936	    -24.10163666	     17.29346395	     37.77607538	      0.00000000	     34.32000000
      3.77000000	      1.61214130	     -6.17951086	     -9.52491635	     -0.00423131	      0.00403036	     -0.00078352	    -20.32569953	     -4.47718173	     -9.08058800	     -3.78646584	     12.06184688	      5.51687895	    -24.56463213	     17.04520649	     39.35837990	      0.00000000	     34.32000000
      3.78000000	      1.66179820	     -5.96231934	     -9.58372859	     -0.00423131	      0.00403036	     -0.00078352	    -20.55345525	     -4.43382758	     -9.40677907	     -3.80436770	     12.20558605	      5.49101728	    -25.18151360	     16.23139106	     47.06753521	      0.00000000	     34.32000000
      3.79000000	      1.67668959	     -5.91282525	     -9.57289623	     -0.00423131	      0.00403036	     -0.00078352	    -20.54874128	     -4.43530225	     -9.40130727	     -3.80363207	     12.19962700	      5.49301843	    -25.18348876	     16.23103153	     47.06675857	      0.00000000	     34.32000000
      3.80000000	      1.53164015	     -5.87061649	     -9.60318252	     -0.00423131	      0.00403036	     -0.00078352	    -20.47623197	     -4.72899623	     -9.55106142	     -3.86150962	     11.58729955	      5.73173014	    -23.44309307	     17.27944868	     39.40864298	      0.00000000	     34.32000000
      3.81000000	      1.54113821	     -5.90415016	     -9.62713233	     -0.00423131	      0.00403036	     -0.00078352	    -20.48426038	     -4.72359889	     -9.55504991	     -3.86308082	     11.60706653	      5.72585614	    -23.46244373	     17.26336643	     39.42201312	      0.00000000	     34.32000000
      3.82000000	      1.62434654	     -5.81646150	     -9.76593518	     -0.00423131	      0.00403036	     -0.00078352	    -20.67107464	     -4.82887826	     -9.92875905	     -3.91966253	     11.47641308	      5.81112643	    -22.05065438	     17.84638816	     34.76730857	      0.00000000	     34.32000000
      3.83000000	      1.51923386	     -5.82937774	     -9.81827595	     -0.00423131	      0.00403036	     -0.00078352	    -20.62853344	     -4.81853396	     -9.84561546	     -3.91481479	     11.49700846	      5.79864812	    -22.14487041	     17.67253621	     34.81780123	      0.00000000	     34.32000000
      3.84000000	      1.62283347	     -6.17276663	     -9.61116234	     -0.00423131	      0.00403036	     -0.00078352	    -20.36786059	     -4.46041259	     -9.04429632	     -3.82927292	     12.26162424	      5.46581164	    -25.75191406	     16.17603299	     47.83286543	      0.00000000	     34.32000000
      3.85000000	      1.60167647	     -6.14537424	     -9.65872535	     -0.00423131	      0.00403036	     -0.00078352	    -20.39939536	     -4.54376562	     -9.20229477	     -3.83742794	     12.04541830	      5.54977292	    -24.63240725	     16.60838026	     43.50771373	      0.00000000	     34.32000000
      3.86000000	      1.77578993	     -6.25297807	     -9.48800228	     -0.00423131	      0.00403036	     -0.00078352	    -20.24853023	     -4.34521301	     -9.01001792	     -3.66565510	     12.00589324	      5.48204698	    -24.29037533	     16.93335682	     42.18078952	      0.00000000	     34.32000000
      3.87000000	      1.72069290	     -6.13872861	     -9.54694329	     -0.00423131	      0.00403036	     -0.00078352	    -20.34715356	     -4.41528579	     -9.16029201	     -3.72729683	     12.01413178	      5.51231018	    -24.23126361	     16.85289793	     41.08745039	      0.00000000	     34.32000000
      3.88000000	      1.60007003	     -5.95103004	     -9.61589220	     -0.00423131	      0.00403036	     -0.00078352	    -20.49655156	     -4.60159905	     -9.42427872	     -3.85598197	     11.92809613	      5.60789593	    -24.27853356	     16.81670518	     40.41572183	      0.00000000	     34.32000000
      3.89000000	      1.60675039	     -5.85629011	     -9.56473128	     -0.00423131	      0.00403036	     -0.00078352	    -20.54814508	     -4.56763275	     -9.55208658	     -3.81881457	     11.87596071	      5.61591067	    -24.01032056	     16.91101834	     39.29153369	      0.00000000	     34.32000000
      3.90000000	      1.51026193	     -5.87757688	     -9.58752328	     -0.00423131	      0.00403036	     -0.00078352	    -20.47970892	     -4.63035480	     -9.39968517	     -3.87168352	     11.90755447	      5.62038581	    -24.54263068	     16.79655449	     40.12039413	      0.00000000	     34.32000000
      3.91000000	      1.54877120	     -6.08134579	     -9.43272208	     -0.00423131	      0.00403036	     -0.00078352	    -20.17394969	     -4.48908650	     -9.03365615	     -3.68263220	     11.67249680	      5.60212115	    -23.83077520	     17.18551538	     38.89346807	      0.00000000	     34.32000000
      3.92000000	      1.52689555	     -5.93681310	     -9.63887501	     -0.00423131	      0.00403036	     -0.00078352	    -20.37359962	     -4.54935282	     -9.18707037	     -3.82556924	     11.99056042	      5.56257838	    -24.54617945	     16.80553272	     39.51307218	      0.00000000	     34.32000000
      3.93000000	      1.47989694	     -5.80627386	     -9.51035258	     -0.00423131	      0.00403036	     -0.00078352	    -20.47668967	     -4.50223485	     -9.46560477	     -3.75394654	     11.83685614	      5.59794548	    -24.60328244	     16.73177438	     40.27572629	      0.00000000	     34.32000000
      3.94000000	      1.66993199	     -5.74798323	     -9.53661569	     -0.00423131	      0.00403036	     -0.00078352	    -20.63245590	     -4.30861898	     -9.56992188	     -3.71503276	     12.21470397	      5.45879343	    -25.39578064	     15.93700400	     47.62001401	      0.00000000	     34.32000000
